# xmcd
#
# Track frame offsets: 
#        150
#        24360
#        43422
#        62782
#        81279
#        100459
#        122508
#        143529
#        163603
#        178295
#        196246
#
# Disc length: 2904 seconds
#
# Revision: 1
# Processed by: cddbd v1.5.2PL0 Copyright (c) Steve Scherf et al.
# Submitted via: ExactAudioCopyFreeDBPlugin 1.0
#
DISCID=960b560b
DTITLE=Herald Nix - What a World
DYEAR=2004
DGENRE=Blues
TTITLE0=Sometimes Once in a While
TTITLE1=Such a Funny Little Thing
TTITLE2=I Call Her Baby Doll
TTITLE3=And Your Name
TTITLE4=What a World
TTITLE5=Down Home Girl
TTITLE6=A Letter Home
TTITLE7=Tell Me Robert
TTITLE8=I Watch for You
TTITLE9=You're No Good
TTITLE10=Don't Be Bitter Now
EXTD=
EXTT0=
EXTT1=
EXTT2=
EXTT3=
EXTT4=
EXTT5=
EXTT6=
EXTT7=
EXTT8=
EXTT9=
EXTT10=
PLAYORDER=
